<svg width="24" height="24" viewBox="0 0 24 24" fill="none" xmlns="http://www.w3.org/2000/svg">
<path d="M8.88672 21.3334C9.71515 21.3334 10.3867 20.6618 10.3867 19.8334C10.3867 19.0049 9.71515 18.3334 8.88672 18.3334C8.05829 18.3334 7.38672 19.0049 7.38672 19.8334C7.38672 20.6618 8.05829 21.3334 8.88672 21.3334Z" fill="#359740"/>
<path d="M18 21.3334C18.8284 21.3334 19.5 20.6618 19.5 19.8334C19.5 19.0049 18.8284 18.3334 18 18.3334C17.1716 18.3334 16.5 19.0049 16.5 19.8334C16.5 20.6618 17.1716 21.3334 18 21.3334Z" fill="#359740"/>
<path d="M22.0534 3.58003C21.9914 3.50356 21.9132 3.44177 21.8244 3.39912C21.7356 3.35647 21.6385 3.33402 21.5401 3.33337H7.66007L8.09341 4.6667H20.6667L18.8867 12.6667H8.88674L5.84007 3.02003C5.80712 2.91767 5.74989 2.8248 5.67328 2.74935C5.59666 2.67389 5.50293 2.61809 5.40007 2.5867L2.66674 1.7467C2.58269 1.72087 2.49438 1.71185 2.40685 1.72015C2.31932 1.72846 2.23428 1.75392 2.15659 1.79509C1.99968 1.87823 1.88223 2.02029 1.83007 2.19003C1.77791 2.35977 1.79532 2.54328 1.87846 2.70018C1.9616 2.85709 2.10367 2.97454 2.27341 3.0267L4.66674 3.76003L7.72674 13.4267L6.63341 14.32L6.54674 14.4067C6.2763 14.7184 6.12301 15.1146 6.11327 15.5271C6.10354 15.9396 6.23797 16.3426 6.49341 16.6667C6.67511 16.8877 6.90601 17.0631 7.16763 17.1788C7.42925 17.2946 7.71434 17.3475 8.00007 17.3334H19.1267C19.3036 17.3334 19.4731 17.2631 19.5981 17.1381C19.7232 17.0131 19.7934 16.8435 19.7934 16.6667C19.7934 16.4899 19.7232 16.3203 19.5981 16.1953C19.4731 16.0703 19.3036 16 19.1267 16H7.89341C7.81664 15.9974 7.74184 15.975 7.67625 15.9351C7.61065 15.8951 7.55647 15.8389 7.51894 15.7719C7.48141 15.7048 7.46179 15.6293 7.46199 15.5525C7.46219 15.4757 7.4822 15.4002 7.52007 15.3334L9.12674 14H19.4201C19.5742 14.0038 19.7248 13.954 19.8464 13.8592C19.9679 13.7644 20.0529 13.6304 20.0867 13.48L22.2001 4.1467C22.2203 4.04731 22.2177 3.94461 22.1923 3.84641C22.1668 3.74821 22.1194 3.6571 22.0534 3.58003Z" fill="#359740"/>
</svg>
